#!OML:ASF F:\VICON\USERDATA\Patient Classification 1\PLAYGROUND\JustinFriday\JustinFriday.ASF
:FULLY-SPECIFIED
:DEGREES
3327
root 11.157 17.615 9.59151 357.657 80.6637 -2.28513
lowerback 10.5347 -0.712549 -2.21614
upperback 4.27831 -0.919085 3.44402
thorax -1.34807 -0.437792 4.94228
lowerneck -3.42858 1.87211 -2.51358
upperneck 20.7862 2.89903 2.03104
head 6.82267 1.53979 1.29406
rclavicle 5.96354e-015 -3.02153e-014
rhumerus -32.3741 -25.7569 -67.8824
rradius 16.5312
rwrist 4.2243
rhand -19.0109 -22.4198
rfingers 7.12502
rthumb 7.29458 -52.274
lclavicle 5.96354e-015 -3.02153e-014
lhumerus -28.8682 -1.41016 79.5977
lradius 44.4029
lwrist 4.25893
lhand -19.8893 -9.5441
lfingers 7.12502
lthumb 6.44668 20.3378
rfemur -28.3912 1.44344 20.2761
rtibia 27.1074
rfoot -1.40312 -7.50749
rtoes 22.4578
lfemur 15.4523 1.91462 -19.6415
ltibia 26.1453
lfoot -5.018 8.2449
ltoes -17.4072
3328
root 11.3503 17.6314 9.62776 354.797 80.4099 -4.93858
lowerback 10.8842 -0.704903 -1.41783
upperback 4.20498 -0.827273 3.39583
thorax -1.64108 -0.377235 4.43352
lowerneck -3.33596 1.9639 -2.34402
upperneck 21.0621 3.01843 2.0499
head 6.89501 1.61545 1.28304
rclavicle -2.26615e-014 -7.95139e-015
rhumerus -33.0459 -26.5964 -67.4323
rradius 16.2726
rwrist 4.74003
rhand -19.2337 -23.0431
rfingers 7.12502
rthumb 7.07957 -52.9047
lclavicle -2.26615e-014 -7.95139e-015
lhumerus -29.4363 -1.34309 79.6472
lradius 44.498
lwrist 3.93864
lhand -19.2115 -9.36274
lfingers 7.12502
lthumb 7.10102 20.4981
rfemur -27.6248 1.48154 20.9163
rtibia 27.3445
rfoot -1.53523 -7.29282
rtoes 22.3559
lfemur 14.3429 2.30621 -18.9523
ltibia 29.1994
lfoot -3.17496 8.18178
ltoes -17.5039
3329
root 11.5371 17.6519 9.66796 352.755 80.2064 -6.72473
lowerback 11.3347 -0.540692 -0.895987
upperback 4.11035 -0.54947 3.36341
thorax -2.01733 -0.227522 4.07743
lowerneck -3.06919 1.96522 -2.1376
upperneck 21.0128 2.99622 2.07728
head 6.83507 1.62599 1.25106
rclavicle 1.11319e-014 -4.05521e-014
rhumerus -33.9139 -27.6817 -66.7258
rradius 15.9955
rwrist 5.16132
rhand -19.4943 -23.0611
rfingers 7.12502
rthumb 6.82804 -52.931
lclavicle 1.11319e-014 -4.05521e-014
lhumerus -30.0278 -1.68265 79.8506
lradius 44.6167
lwrist 3.13456
lhand -18.2461 -9.54459
lfingers 7.12502
lthumb 8.03278 20.2828
rfemur -26.7712 1.4541 21.4289
rtibia 27.5182
rfoot -1.8023 -6.91743
rtoes 23.309
lfemur 13.1142 3.01077 -18.1685
ltibia 32.4455
lfoot -1.15495 7.8189
ltoes -14.6551
3330
root 11.7214 17.6813 9.70785 350.226 80.0414 -9.13742
lowerback 11.5956 -0.451973 -0.46778
upperback 4.04883 -0.372485 3.49265
thorax -2.24045 -0.132768 3.95139
lowerneck -2.89147 1.99306 -1.94477
upperneck 20.9829 3.03864 1.96442
head 6.79843 1.65406 1.1821
rclavicle 8.74653e-015 -2.70347e-014
rhumerus -34.3914 -28.2225 -66.136
rradius 15.5825
rwrist 5.51683
rhand -19.1472 -22.97
rfingers 7.12502
rthumb 7.16305 -52.8288
lclavicle 8.74653e-015 -2.70347e-014
lhumerus -30.6308 -1.92945 80.2768
lradius 44.6245
lwrist 2.9331
lhand -18.0514 -9.75947
lfingers 7.12502
lthumb 8.2207 20.0606
rfemur -25.9098 1.41072 22.0259
rtibia 27.4996
rfoot -2.00053 -6.51819
rtoes 24.3625
lfemur 11.6826 3.8991 -17.1047
ltibia 35.7102
lfoot 1.19023 7.2458
ltoes -9.98919
3331
root 11.9058 17.7011 9.74316 345.907 79.6867 -13.4225
lowerback 11.7121 -0.471926 0.359201
upperback 4.07103 -0.285318 3.75601
thorax -2.29144 -0.0822732 3.7479
lowerneck -2.81979 2.06116 -1.91493
upperneck 21.0185 3.16214 1.80511
head 6.79866 1.70409 1.13337
rclavicle 1.43125e-014 1.43125e-014
rhumerus -34.5865 -28.7429 -65.607
rradius 15.2034
rwrist 6.22847
rhand -18.611 -22.9265
rfingers 7.12502
rthumb 7.68066 -52.7671
lclavicle 1.43125e-014 1.43125e-014
lhumerus -31.0162 -1.75946 80.6818
lradius 44.4624
lwrist 3.07768
lhand -18.0608 -9.98987
lfingers 7.12502
lthumb 8.21161 19.8306
rfemur -25.0822 1.44167 23.0352
rtibia 27.4376
rfoot -2.01512 -6.24534
rtoes 24.5999
lfemur 10.1405 4.28159 -15.9551
ltibia 38.998
lfoot 3.77048 7.28856
ltoes -5.37954
3332
root 12.0928 17.7343 9.77842 341.341 79.2423 -17.8914
lowerback 11.8294 -0.461495 1.32172
upperback 4.1593 -0.137449 4.03562
thorax -2.27547 0.000145733 3.47627
lowerneck -2.5287 2.10728 -2.05254
upperneck 20.7025 3.23066 1.77744
head 6.64282 1.72411 1.14191
rclavicle -1.76918e-014 -1.59028e-014
rhumerus -34.8165 -29.5497 -65.0038
rradius 14.9116
rwrist 7.24089
rhand -18.3503 -22.7827
rfingers 7.12502
rthumb 7.93229 -52.6139
lclavicle -1.76918e-014 -1.59028e-014
lhumerus -31.2426 -1.88321 81.1052
lradius 44.327
lwrist 3.00999
lhand -17.5161 -10.0986
lfingers 7.12502
lthumb 8.73736 19.7005
rfemur -24.1235 1.36644 24.176
rtibia 27.3769
rfoot -2.02098 -5.94449
rtoes 23.4948
lfemur 8.61828 4.39865 -14.8696
ltibia 42.2543
lfoot 6.53676 7.65624
ltoes -2.13618
3333
root 12.2767 17.7557 9.81549 338.815 78.9907 -20.3009
lowerback 11.8837 -0.420751 1.83842
upperback 4.25582 -0.0108129 4.18883
thorax -2.21128 0.0690354 3.32722
lowerneck -2.40552 2.13989 -1.99348
upperneck 20.5764 3.27787 1.71107
head 6.58215 1.74631 1.10965
rclavicle 3.79679e-014 2.14687e-014
rhumerus -34.9531 -30.116 -64.6349
rradius 14.6092
rwrist 8.0236
rhand -18.287 -22.5706
rfingers 7.12502
rthumb 7.99335 -52.3995
lclavicle 3.79679e-014 2.14687e-014
lhumerus -31.5321 -2.52592 81.5604
lradius 44.2763
lwrist 3.01216
lhand -17.1684 -10.3013
lfingers 7.12502
lthumb 9.07286 19.4836
rfemur -23.1441 1.12258 24.8654
rtibia 27.1977
rfoot -2.17859 -5.59922
rtoes 22.8359
lfemur 7.02267 4.73829 -14.0946
ltibia 45.3608
lfoot 9.46481 7.83818
ltoes 0.237818
3334
root 12.4569 17.7681 9.85341 337.3 78.9273 -21.7824
lowerback 11.8385 -0.369565 2.17015
upperback 4.32145 0.0977938 4.26155
thorax -2.12285 0.126994 3.20028
lowerneck -2.04525 2.28036 -1.88786
upperneck 20.2927 3.45976 1.66408
head 6.42785 1.8392 1.07725
rclavicle -1.59028e-014 6.67916e-014
rhumerus -34.9308 -30.2493 -64.5747
rradius 14.3283
rwrist 8.20946
rhand -18.4606 -22.3492
rfingers 7.12502
rthumb 7.82579 -52.1844
lclavicle -1.59028e-014 6.67916e-014
lhumerus -31.7537 -3.22663 82.0593
lradius 44.1925
lwrist 3.04422
lhand -16.8228 -10.4168
lfingers 7.12502
lthumb 9.40628 19.3533
rfemur -22.3261 0.99604 25.2606
rtibia 27.014
rfoot -2.36658 -5.42809
rtoes 22.911
lfemur 5.25007 5.22637 -13.4102
ltibia 48.3668
lfoot 12.159 8.14021
ltoes 3.57846
3335
root 12.642 17.8179 9.89096 335.164 78.933 -23.8284
lowerback 11.8344 -0.362701 2.6175
upperback 4.4265 0.167035 4.39283
thorax -2.0129 0.168283 3.07548
lowerneck -0.789709 2.63863 -2.5095
upperneck 19.1206 3.85896 2.16313
head 5.80853 2.02448 1.31683
rclavicle 1.45113e-014 2.06736e-014
rhumerus -34.726 -30.236 -64.5762
rradius 14.1413
rwrist 8.2352
rhand -18.6325 -22.5533
rfingers 7.12502
rthumb 7.65983 -52.3946
lclavicle 1.45113e-014 2.06736e-014
lhumerus -31.834 -3.7808 82.6671
lradius 44.1217
lwrist 3.02098
lhand -16.4564 -9.88762
lfingers 7.12502
lthumb 9.75985 19.8662
rfemur -21.3385 0.985739 25.6921
rtibia 26.7724
rfoot -2.51103 -5.48078
rtoes 22.9278
lfemur 3.66093 4.61078 -13.201
ltibia 51.0975
lfoot 14.5798 9.50506
ltoes 8.15592
3336
root 12.8254 17.8414 9.93177 332.098 78.7995 -26.6801
lowerback 11.9066 -0.377761 3.12719
upperback 4.56242 0.222755 4.58222
thorax -1.91074 0.205534 2.97937
lowerneck 0.809527 3.05524 -3.41614
upperneck 17.7687 4.29326 2.89752
head 5.06691 2.22353 1.65652
rclavicle -1.88845e-014 4.85035e-014
rhumerus -34.5302 -30.3938 -64.5454
rradius 13.9653
rwrist 8.58207
rhand -18.6831 -22.8725
rfingers 7.12502
rthumb 7.61101 -52.7155
lclavicle -1.88845e-014 4.85035e-014
lhumerus -32.0669 -4.75576 83.2701
lradius 44.3593
lwrist 3.29006
lhand -16.3066 -8.71151
lfingers 7.12502
lthumb 9.90433 21.0355
rfemur -20.1755 1.01346 26.346
rtibia 26.48
rfoot -2.75397 -5.7442
rtoes 22.6485
lfemur 2.23382 5.12499 -12.0896
ltibia 53.7183
lfoot 17.1831 9.52916
ltoes 13.8748
3337
root 13.0052 17.8725 9.98512 329.213 78.4531 -29.348
lowerback 11.9767 -0.344364 3.4643
upperback 4.68675 0.322164 4.77689
thorax -1.82077 0.263092 2.98083
lowerneck 2.07682 3.36848 -3.92604
upperneck 16.7336 4.60524 3.41594
head 4.50093 2.37257 1.86162
rclavicle -1.07344e-014 -1.51076e-014
rhumerus -34.3354 -30.5467 -64.6724
rradius 13.755
rwrist 9.15539
rhand -18.4465 -22.7431
rfingers 7.12502
rthumb 7.83942 -52.5778
lclavicle -1.07344e-014 -1.51076e-014
lhumerus -32.2382 -4.95004 83.535
lradius 44.0593
lwrist 2.8766
lhand -16.0727 -8.42537
lfingers 7.12502
lthumb 10.13 21.3108
rfemur -18.9135 1.37786 27.1254
rtibia 26.0275
rfoot -3.01478 -6.28835
rtoes 20.9947
lfemur 0.889337 4.78179 -11.393
ltibia 56.0418
lfoot 18.7931 10.5757
ltoes 18.9698
3338
root 13.1757 17.8967 10.0362 327.762 78.285 -30.5522
lowerback 12.1228 -0.371922 3.43721
upperback 4.84835 0.301384 4.94157
thorax -1.73129 0.257746 3.17302
lowerneck 2.81908 3.65841 -4.38022
upperneck 15.6971 4.95487 3.59412
head 4.50093 2.51121 2.14463
rclavicle -1.45113e-014 2.94201e-014
rhumerus -33.7488 -30.0049 -65.1811
rradius 13.6784
rwrist 9.31502
rhand -18.0919 -22.6228
rfingers 7.12502
rthumb 8.18164 -52.4444
lclavicle -1.45113e-014 2.94201e-014
lhumerus -31.949 -3.28962 83.5212
lradius 43.212
lwrist 0.862868
lhand -15.4182 -8.83601
lfingers 7.12502
lthumb 10.7614 20.8683
rfemur -17.7798 1.59059 27.5735
rtibia 25.6857
rfoot -3.1778 -6.63825
rtoes 18.368
lfemur -0.466352 4.91589 -10.8614
ltibia 58.233
lfoot 20.011 10.0622
ltoes 19.7148
3339
root 13.3425 17.9139 10.0717 326.625 78.3022 -31.4192
lowerback 12.3673 -0.37729 3.53877
upperback 4.97837 0.328052 5.00126
thorax -1.7283 0.276554 3.17647
lowerneck 2.75891 3.78569 -4.43572
upperneck 15.8634 5.12499 3.6839
head 4.56312 2.59683 2.19655
rclavicle -1.05356e-014 2.46493e-014
rhumerus -33.3648 -29.7915 -65.4399
rradius 13.7699
rwrist 9.48047
rhand -17.9036 -22.6247
rfingers 7.12502
rthumb 8.36333 -52.4392
lclavicle -1.05356e-014 2.46493e-014
lhumerus -31.1063 0.609697 83.1464
lradius 41.5447
lwrist -3.74734
lhand -13.889 -9.93786
lfingers 7.12502
lthumb 12.2361 19.6842
rfemur -16.6785 1.50558 27.8218
rtibia 25.3425
rfoot -3.27662 -6.71373
rtoes 16.244
lfemur -1.76611 4.84499 -10.6412
ltibia 60.2713
lfoot 20.3155 9.60331
ltoes 20.2566
3340
root 13.5109 17.9324 10.1022 325.136 78.1149 -32.7318
lowerback 12.5495 -0.20554 3.97547
upperback 5.0228 0.623043 5.00283
thorax -1.78461 0.430498 2.89182
lowerneck 2.2875 3.6372 -3.86466
upperneck 16.948 4.9473 3.63399
head 4.51439 2.56004 1.92732
rclavicle -2.26615e-014 -1.82882e-014
rhumerus -33.4787 -30.3838 -65.2992
rradius 13.8526
rwrist 10.0277
rhand -17.6775 -22.1893
rfingers 7.12502
rthumb 8.58156 -51.9949
lclavicle -2.26615e-014 -1.82882e-014
lhumerus -31.1551 -0.509095 83.7317
lradius 41.1372
lwrist -3.86338
lhand -13.6452 -9.74126
lfingers 7.12502
lthumb 12.4712 19.8666
rfemur -15.6735 1.73644 28.2512
rtibia 25.0559
rfoot -3.43827 -7.0172
rtoes 14.4709
lfemur -3.06776 5.0292 -10.0751
ltibia 62.1723
lfoot 19.4696 9.38187
ltoes 22.4268
